<svg width="20" height="20" viewBox="0 0 20 20" fill="none" xmlns="http://www.w3.org/2000/svg">
<path d="M2.14286 0C0.959821 0 0 0.959821 0 2.14286V17.8571C0 19.0402 0.959821 20 2.14286 20H17.8571C19.0402 20 20 19.0402 20 17.8571V2.14286C20 0.959821 19.0402 0 17.8571 0H2.14286ZM6.55714 5.94795C7.43375 5.94795 8.21259 6.25103 8.78612 6.70558C9.31647 7.12754 9.56487 7.54964 9.78156 7.92848L8.26714 8.68513C8.1588 8.4367 8.02844 8.17679 7.69366 7.89576C7.32545 7.60326 6.95804 7.51701 6.64348 7.51701C5.41018 7.51701 4.76089 8.66402 4.76089 9.94054C4.76089 11.6179 5.61629 12.4504 6.64348 12.4504C7.63902 12.4504 8.03982 11.7579 8.29884 11.3149L9.80357 12.083C9.52165 12.5262 9.25116 12.9596 8.64509 13.3808C8.32089 13.608 7.57469 14.0521 6.51402 14.0521C4.49045 14.0521 2.85714 12.5808 2.85714 9.9942C2.85714 7.73366 4.39353 5.94795 6.55714 5.94795ZM9.92692 6.18576H11.9611L13.5406 11.6179L15.1087 6.1858H17.1429L14.492 13.8247H12.5451L9.92692 6.18576Z" fill="black"/>
</svg>
