<svg width="20" height="22" viewBox="0 0 20 22" fill="none" xmlns="http://www.w3.org/2000/svg">
<path d="M18.8477 2.44418V0.88401L20 0H7.53003L0 6.43236H4.99382C4.98497 6.55104 4.98071 6.67001 4.98105 6.789C4.98105 7.98325 5.40199 8.97107 6.24455 9.76021C7.08717 10.5507 8.12487 10.9432 9.35356 10.9432C9.64058 10.9432 9.92199 10.9221 10.1953 10.8845C10.0258 11.2569 9.9403 11.602 9.9403 11.9239C9.9403 12.4896 10.2026 13.0944 10.7254 13.7367C8.43806 13.8897 6.75742 14.2943 5.68609 14.9492C5.07212 15.3216 4.57837 15.7916 4.20583 16.3546C3.83322 16.9218 3.64742 17.5299 3.64742 18.1858C3.64742 18.7385 3.76764 19.2362 4.00999 19.6789C4.25229 20.1215 4.5684 20.485 4.961 20.7665C5.35266 21.0511 5.80455 21.2879 6.31468 21.4809C6.82388 21.6725 7.32947 21.8085 7.83406 21.8855C8.32988 21.9615 8.83093 21.9998 9.33275 22C10.118 22 10.9041 21.9007 11.6967 21.7028C12.4873 21.5032 13.2288 21.2077 13.9221 20.8152C14.6135 20.4253 15.1764 19.8936 15.6083 19.2272C16.0391 18.558 16.255 17.8061 16.255 16.9736C16.255 16.3424 16.1239 15.7682 15.8615 15.2468C15.601 14.727 15.2821 14.2991 14.9023 13.9666C14.5233 13.6336 14.1444 13.3275 13.7645 13.0518C13.3856 12.7742 13.0649 12.4932 12.8044 12.2031C12.543 11.914 12.4118 11.6271 12.4118 11.3447C12.4118 11.0627 12.5129 10.7905 12.7159 10.5274C12.9173 10.2633 13.1633 10.009 13.4511 9.76508C13.7389 9.52159 14.0268 9.25129 14.3137 8.95537C14.6006 8.66049 14.8466 8.27779 15.0489 7.80908C15.252 7.34044 15.3522 6.80963 15.3522 6.21884C15.3522 5.44809 15.2037 4.81748 14.9122 4.31022C14.8776 4.25167 14.8412 4.20693 14.8029 4.13709L18.1206 1.46317V2.44395C17.6896 2.49723 17.7344 2.75017 17.7344 3.05324V10.4248C17.7344 10.7661 18.0186 11.0455 18.3661 11.0455H18.5986C18.946 11.0455 19.2302 10.7662 19.2302 10.4248V3.05324C19.2302 2.75092 19.2756 2.49815 18.8477 2.44418ZM12.5885 15.1905C12.655 15.2335 12.8044 15.3498 13.0385 15.5364C13.2746 15.7222 13.4347 15.8627 13.5204 15.9612C13.6459 16.1039 13.7698 16.2481 13.8921 16.3936C14.0561 16.5869 14.1672 16.7547 14.2255 16.8939C14.2838 17.0359 14.343 17.2067 14.4031 17.4065C14.4606 17.6032 14.4897 17.8069 14.4897 18.0116C14.4897 18.9883 14.107 19.712 13.3437 20.1806C12.5785 20.6492 11.6666 20.8838 10.6072 20.8838C10.0716 20.8838 9.54595 20.8212 9.02941 20.7007C8.51385 20.5795 8.02016 20.395 7.54915 20.1506C7.07819 19.9067 6.6993 19.566 6.41228 19.131C6.12439 18.6933 5.98045 18.1906 5.98045 17.6271C5.98045 17.0359 6.14351 16.5219 6.47146 16.0856C6.79759 15.6488 7.22575 15.3184 7.75594 15.0936C8.28432 14.8675 8.81993 14.7073 9.36283 14.6125C9.90986 14.5146 10.4648 14.4656 11.0208 14.4661C11.2814 14.4661 11.4835 14.4804 11.6274 14.506C11.6539 14.5185 11.8042 14.6246 12.0784 14.8247C12.3526 15.023 12.5229 15.1452 12.5885 15.1904V15.1905ZM12.3927 9.42815C11.9609 9.93575 11.3588 10.1894 10.5881 10.1894C9.89663 10.1894 9.28809 9.9165 8.76525 9.36948C8.24054 8.82389 7.86613 8.20485 7.63747 7.51151C7.40794 6.81777 7.29315 6.13743 7.29315 5.46918C7.29323 4.68466 7.50274 4.01672 7.92169 3.46534C8.3407 2.91248 8.94196 2.63547 9.7254 2.63547C10.4177 2.63547 11.0298 2.92411 11.5582 3.50384C12.0884 4.08163 12.4683 4.73063 12.6961 5.44993C12.9247 6.16837 13.0385 6.85529 13.0385 7.51151C13.0385 8.28185 12.8226 8.92146 12.3927 9.42815H12.3927Z" fill="black"/>
</svg>
