<svg width="25" height="20" viewBox="0 0 25 20" fill="none" xmlns="http://www.w3.org/2000/svg">
<path d="M22.5 0H2.5C1.125 0 0.0125 1.125 0.0125 2.5L0 17.5C0 18.875 1.125 20 2.5 20H22.5C23.875 20 25 18.875 25 17.5V2.5C25 1.125 23.875 0 22.5 0ZM22 5.3125L13.1625 10.8375C12.7625 11.0875 12.2375 11.0875 11.8375 10.8375L3 5.3125C2.87466 5.24214 2.7649 5.14708 2.67736 5.03307C2.58982 4.91906 2.52633 4.78847 2.49072 4.64921C2.45511 4.50995 2.44813 4.36492 2.4702 4.22288C2.49226 4.08085 2.54292 3.94477 2.6191 3.82288C2.69528 3.70099 2.79541 3.59582 2.91341 3.51374C3.03141 3.43167 3.16484 3.37439 3.30562 3.34537C3.4464 3.31636 3.5916 3.31621 3.73244 3.34494C3.87328 3.37366 4.00683 3.43067 4.125 3.5125L12.5 8.75L20.875 3.5125C20.9932 3.43067 21.1267 3.37366 21.2676 3.34494C21.4084 3.31621 21.5536 3.31636 21.6944 3.34537C21.8352 3.37439 21.9686 3.43167 22.0866 3.51374C22.2046 3.59582 22.3047 3.70099 22.3809 3.82288C22.4571 3.94477 22.5077 4.08085 22.5298 4.22288C22.5519 4.36492 22.5449 4.50995 22.5093 4.64921C22.4737 4.78847 22.4102 4.91906 22.3226 5.03307C22.2351 5.14708 22.1253 5.24214 22 5.3125Z" fill="black"/>
</svg>
