<svg preserveAspectRatio="none" width="100%" height="100%" overflow="visible" style="display: block;" viewBox="0 0 21.8368 26.949" fill="none" xmlns="http://www.w3.org/2000/svg">
<path id="Vector" d="M8.6316 25.247C9.36678 25.8536 10.1335 26.408 10.9184 26.949C11.705 26.4151 12.468 25.8473 13.2052 25.247C14.4341 24.2379 15.5907 23.1438 16.6663 21.9727C19.146 19.2613 21.8368 15.3307 21.8368 10.9184C21.8368 9.48458 21.5544 8.06479 21.0057 6.74011C20.457 5.41543 19.6527 4.21179 18.6389 3.19793C17.625 2.18406 16.4214 1.37982 15.0967 0.831114C13.772 0.282413 12.3522 0 10.9184 0C9.48458 0 8.06479 0.282413 6.74011 0.831114C5.41543 1.37982 4.21179 2.18406 3.19793 3.19793C2.18406 4.21179 1.37981 5.41543 0.831114 6.74011C0.282413 8.06479 -2.13657e-08 9.48458 0 10.9184C0 15.3307 2.69078 19.2601 5.17047 21.9727C6.24608 23.1442 7.40263 24.2375 8.6316 25.247ZM10.9184 14.8612C9.87272 14.8612 8.86986 14.4458 8.13045 13.7064C7.39104 12.9669 6.97565 11.9641 6.97565 10.9184C6.97565 9.87272 7.39104 8.86986 8.13045 8.13045C8.86986 7.39104 9.87272 6.97565 10.9184 6.97565C11.9641 6.97565 12.9669 7.39104 13.7064 8.13045C14.4458 8.86986 14.8612 9.87272 14.8612 10.9184C14.8612 11.9641 14.4458 12.9669 13.7064 13.7064C12.9669 14.4458 11.9641 14.8612 10.9184 14.8612Z" fill="var(--fill-0, white)"/>
</svg>
